<?xml version="1.0" encoding="utf-8"?>
<!-- Generator: Adobe Illustrator 26.0.1, SVG Export Plug-In . SVG Version: 6.00 Build 0)  -->
<svg version="1.1" id="圖層_1" xmlns="http://www.w3.org/2000/svg" xmlns:xlink="http://www.w3.org/1999/xlink" x="0px" y="0px"
	 viewBox="0 0 24 24" style="enable-background:new 0 0 24 24;" xml:space="preserve">
<style type="text/css">
	.st0{fill:#6F7E61;}
</style>
<g>
	<g>
		<path class="st0" d="M2,0l6.4,0.4L6.1,5.5L2,0z"/>
	</g>
	<g>
		<path class="st0" d="M5.5,10.8c-0.1,0-0.2,0-0.2,0c-0.3-0.1-0.5-0.5-0.3-0.8l3.8-9.3c0.1-0.3,0.5-0.5,0.8-0.3
			c0.3,0.1,0.5,0.5,0.3,0.8L6,10.4C5.9,10.7,5.7,10.8,5.5,10.8z"/>
	</g>
	<g>
		<path class="st0" d="M13,7.9c-1.5,0-2.7-1.1-2.7-2.5S11.5,3,13,3s2.7,1.1,2.7,2.5S14.5,7.9,13,7.9z M13,4.2
			c-0.8,0-1.5,0.6-1.5,1.3s0.7,1.3,1.5,1.3c0.8,0,1.5-0.6,1.5-1.3S13.8,4.2,13,4.2z"/>
	</g>
	<g>
		<path class="st0" d="M16.5,24c-1,0-2-0.7-2.3-1.7l-1-3.2l0,0c-0.5,0.3-0.9,0.7-1.1,1.3l-0.4,1.2c-0.4,1.1-1.6,1.7-2.7,1.4
			c-0.6-0.2-1-0.6-1.3-1.1c-0.3-0.5-0.3-1.1-0.1-1.7l0.7-2c0.4-1.1,1.1-1.9,2.1-2.4l1.9-1l-0.7-2.3l-1.9,0.8c-0.9,0.4-1.9,0.4-2.8,0
			l-1.3-0.6c-0.8-0.4-1.2-1.3-1-2.2C4.9,10,5.2,9.7,5.6,9.4c0.4-0.2,0.9-0.3,1.4-0.1l0.8,0.3c0.3,0.1,0.7,0.1,1,0l2.4-1
			c1.7-0.7,3.4-0.8,5-0.4c1.5,0.4,2.7,0.9,3.5,1.5l0,0c0.6,0.4,1.2,0.9,1.8,1.5c0.4,0.4,0.6,0.9,0.5,1.4c0,0.5-0.3,1-0.7,1.4
			c-0.8,0.6-1.8,0.5-2.5-0.1L18,13.1c-0.2-0.2-0.4-0.3-0.7-0.4l-1-0.4l2.5,8.7c0.2,0.6,0.1,1.2-0.2,1.8c-0.3,0.6-0.8,0.9-1.4,1.1
			C17,24,16.7,24,16.5,24z M13.6,17.7c0.1,0,0.2,0,0.3,0.1c0.2,0.1,0.4,0.3,0.5,0.5l1.1,3.7c0.2,0.6,0.8,0.9,1.4,0.8
			c0.3-0.1,0.5-0.3,0.7-0.5c0.1-0.3,0.2-0.6,0.1-0.9l-2.6-9c-0.1-0.4,0-0.8,0.3-1.1c0.3-0.3,0.7-0.4,1.1-0.2l1.3,0.5
			c0.4,0.1,0.8,0.4,1.1,0.7l0.8,0.7c0.3,0.3,0.7,0.3,1,0c0.2-0.1,0.3-0.3,0.3-0.5c0-0.1,0-0.3-0.2-0.5c-0.6-0.6-1.1-1-1.6-1.4
			c-0.7-0.5-1.7-0.9-3.1-1.3c-1.3-0.3-2.7-0.2-4.2,0.4l-2.4,1c-0.6,0.2-1.2,0.3-1.8,0l-0.8-0.3c-0.2-0.1-0.3,0-0.5,0
			c-0.1,0.1-0.2,0.2-0.3,0.4c-0.1,0.3,0,0.6,0.3,0.7l1.3,0.6c0.6,0.3,1.2,0.3,1.8,0l2.1-0.9c0.3-0.1,0.6-0.1,0.8,0
			c0.3,0.1,0.5,0.4,0.5,0.6l0.8,2.6c0.1,0.5-0.1,1-0.5,1.2l-2,1c-0.7,0.4-1.3,1-1.5,1.8l-0.7,2c-0.1,0.3-0.1,0.5,0.1,0.8
			s0.3,0.4,0.6,0.5c0.5,0.2,1-0.1,1.2-0.6l0.4-1.2c0.3-0.8,0.9-1.5,1.6-1.9l0.5-0.3C13.3,17.7,13.4,17.7,13.6,17.7z M13.2,18.6
			C13.2,18.6,13.2,18.6,13.2,18.6L13.2,18.6z"/>
	</g>
</g>
</svg>
