<?xml version="1.0" encoding="utf-8"?>
<!-- Generator: Adobe Illustrator 26.0.1, SVG Export Plug-In . SVG Version: 6.00 Build 0)  -->
<svg version="1.1" id="圖層_1" xmlns="http://www.w3.org/2000/svg" xmlns:xlink="http://www.w3.org/1999/xlink" x="0px" y="0px"
	 viewBox="0 0 130 19" style="enable-background:new 0 0 130 19;" xml:space="preserve">
<style type="text/css">
	.st0{fill:#00D19F;}
</style>
<path d="M0.5,5.6h4.1V18h3.8V5.6h4.1v-3H0.5V5.6z M24.9,18h4L23.3,2.6h-4.4L13.4,18h3.9l0.9-2.7H24L24.9,18z M23,12.4h-3.8l1.9-5.7
	L23,12.4z M30.6,18h3.8V5.7h-3.8V18z M40.2,18h4.6l2.6-10.2L49.7,18h4.6l4-15.4h-4L52,13.8L49.4,2.6h-4.1l-2.8,11.2L40.3,2.6h-4
	L40.2,18z M70.7,18h4L69.1,2.6h-4.4L59.2,18h3.9l0.9-2.7h5.8L70.7,18z M68.9,12.4H65l1.9-5.7L68.9,12.4z M86.5,2.6v9.6l-6.3-9.6
	h-3.8V18h3.8V8.5l6.3,9.5h3.8V2.6H86.5z"/>
<path class="st0" d="M104.9,2.4c-4.6,0-7.9,3.3-7.9,7.9s3.3,7.9,7.9,7.9c4.1,0,6.6-2.7,7.4-5.3V9.3h-8.2v2.8h4.8
	c-0.6,1.7-1.9,2.7-3.7,2.7c-2.7,0-4.3-1.7-4.3-4.5c0-2.7,1.6-4.4,4-4.4c1.4,0,2.5,0.6,3,1.6h4.2C111.2,4.3,108.5,2.4,104.9,2.4z
	 M129.6,10.2c0-4.6-3.5-7.9-7.9-7.9c-4.4,0-7.9,3.3-7.9,7.9s3.6,7.9,7.9,7.9S129.6,14.9,129.6,10.2z M117.6,10.2
	c0-2.8,1.6-4.5,4.1-4.5c2.5,0,4.1,1.7,4.1,4.5c0,2.7-1.6,4.5-4.1,4.5C119.2,14.7,117.6,12.9,117.6,10.2z"/>
<circle class="st0" cx="32.5" cy="2.6" r="2.5"/>
</svg>
